<svg xmlns="http://www.w3.org/2000/svg" xmlns:xlink="http://www.w3.org/1999/xlink" zoomAndPan="magnify" preserveAspectRatio="xMidYMid meet" version="1.0" viewBox="82.3 147.47 210.63 57.77"><defs><g></g><clipPath id="6701cd8285"><path d="M 213.621094 160.921875 L 254.867188 160.921875 L 254.867188 181.359375 L 213.621094 181.359375 Z M 213.621094 160.921875 " clip-rule="nonzero"></path></clipPath><clipPath id="705aedb98e"><path d="M 227 149.109375 L 242 149.109375 L 242 158 L 227 158 Z M 227 149.109375 " clip-rule="nonzero"></path></clipPath></defs><g fill="#100f0d" fill-opacity="1"><g transform="translate(80.021222, 204.658625)"><g><path d="M 6.640625 0 C 4.992188 0 3.851562 -0.457031 3.21875 -1.375 C 2.59375 -2.289062 2.28125 -3.300781 2.28125 -4.40625 C 2.28125 -7.800781 2.773438 -10.832031 3.765625 -13.5 C 4.765625 -16.164062 6.101562 -18.546875 7.78125 -20.640625 C 9.457031 -22.742188 11.34375 -24.640625 13.4375 -26.328125 C 15.53125 -28.023438 17.691406 -29.617188 19.921875 -31.109375 C 22.160156 -32.597656 24.328125 -34.054688 26.421875 -35.484375 C 28.515625 -36.910156 30.398438 -38.394531 32.078125 -39.9375 C 33.753906 -41.488281 35.085938 -43.1875 36.078125 -45.03125 C 37.078125 -46.882812 37.578125 -48.972656 37.578125 -51.296875 C 37.578125 -51.941406 37.5 -52.609375 37.34375 -53.296875 C 37.1875 -53.984375 36.878906 -54.566406 36.421875 -55.046875 C 35.972656 -55.523438 35.269531 -55.765625 34.3125 -55.765625 L 23.109375 -55.765625 C 17.578125 -55.765625 13.320312 -55.4375 10.34375 -54.78125 C 7.375 -54.132812 5.300781 -53.453125 4.125 -52.734375 L 4.125 -57.1875 L 39.578125 -57.1875 C 40.722656 -57.1875 41.367188 -56.820312 41.515625 -56.09375 C 41.671875 -55.375 41.75 -54.421875 41.75 -53.234375 C 41.75 -50.335938 41.257812 -47.71875 40.28125 -45.375 C 39.3125 -43.03125 37.988281 -40.90625 36.3125 -39 C 34.632812 -37.09375 32.765625 -35.3125 30.703125 -33.65625 C 28.648438 -32 26.515625 -30.414062 24.296875 -28.90625 C 22.085938 -27.40625 19.953125 -25.890625 17.890625 -24.359375 C 15.835938 -22.835938 13.972656 -21.238281 12.296875 -19.5625 C 10.617188 -17.882812 9.289062 -16.050781 8.3125 -14.0625 C 7.34375 -12.082031 6.859375 -9.875 6.859375 -7.4375 C 6.859375 -5.644531 7.039062 -4.328125 7.40625 -3.484375 C 7.769531 -2.648438 8.296875 -2.109375 8.984375 -1.859375 C 9.671875 -1.609375 10.523438 -1.484375 11.546875 -1.484375 L 29.796875 -1.484375 C 31.398438 -1.484375 33.054688 -1.609375 34.765625 -1.859375 C 36.484375 -2.109375 38.113281 -2.582031 39.65625 -3.28125 C 41.195312 -3.988281 42.484375 -5.007812 43.515625 -6.34375 L 43.515625 0 Z M 6.640625 0 "></path></g></g></g><g fill="#100f0d" fill-opacity="1"><g transform="translate(125.830224, 204.658625)"><g><path d="M 9.890625 0 L 2.234375 0 C 2.992188 -0.757812 3.5 -1.898438 3.75 -3.421875 C 4 -4.953125 4.113281 -6.671875 4.09375 -8.578125 C 4.070312 -10.484375 4.0625 -12.390625 4.0625 -14.296875 L 4.0625 -23.734375 C 4.0625 -25.640625 4.070312 -27.546875 4.09375 -29.453125 C 4.113281 -31.359375 4 -33.070312 3.75 -34.59375 C 3.5 -36.125 2.992188 -37.269531 2.234375 -38.03125 L 8.0625 -38.03125 L 8.0625 -14.296875 C 8.0625 -12.390625 8.050781 -10.484375 8.03125 -8.578125 C 8.007812 -6.671875 8.125 -4.953125 8.375 -3.421875 C 8.625 -1.898438 9.128906 -0.757812 9.890625 0 Z M 5.375 -43.46875 C 4.425781 -43.46875 3.625 -43.789062 2.96875 -44.4375 C 2.320312 -45.082031 2 -45.882812 2 -46.84375 C 2 -47.75 2.320312 -48.523438 2.96875 -49.171875 C 3.625 -49.828125 4.425781 -50.15625 5.375 -50.15625 C 6.289062 -50.15625 7.070312 -49.828125 7.71875 -49.171875 C 8.363281 -48.523438 8.6875 -47.75 8.6875 -46.84375 C 8.6875 -45.882812 8.363281 -45.082031 7.71875 -44.4375 C 7.070312 -43.789062 6.289062 -43.46875 5.375 -43.46875 Z M 5.375 -43.46875 "></path></g></g></g><g fill="#100f0d" fill-opacity="1"><g transform="translate(137.725703, 204.658625)"><g><path d="M 3.828125 -23.734375 C 3.828125 -25.640625 3.835938 -27.546875 3.859375 -29.453125 C 3.878906 -31.359375 3.765625 -33.070312 3.515625 -34.59375 C 3.265625 -36.125 2.757812 -37.269531 2 -38.03125 L 7.828125 -38.03125 L 7.828125 -7.4375 C 8.785156 -9.757812 9.785156 -12.320312 10.828125 -15.125 C 11.878906 -17.925781 13.003906 -20.695312 14.203125 -23.4375 C 15.410156 -26.1875 16.765625 -28.703125 18.265625 -30.984375 C 19.773438 -33.273438 21.460938 -35.117188 23.328125 -36.515625 C 25.203125 -37.910156 27.300781 -38.609375 29.625 -38.609375 C 30.914062 -38.609375 31.953125 -38.507812 32.734375 -38.3125 C 33.515625 -38.125 33.90625 -38.03125 33.90625 -38.03125 L 33.90625 -33.28125 C 33.90625 -33.28125 33.523438 -33.410156 32.765625 -33.671875 C 32.003906 -33.941406 30.9375 -34.078125 29.5625 -34.078125 C 27.351562 -34.078125 25.34375 -33.445312 23.53125 -32.1875 C 21.71875 -30.9375 20.078125 -29.28125 18.609375 -27.21875 C 17.140625 -25.164062 15.816406 -22.90625 14.640625 -20.4375 C 13.460938 -17.976562 12.382812 -15.519531 11.40625 -13.0625 C 10.4375 -10.601562 9.566406 -8.34375 8.796875 -6.28125 C 8.035156 -4.226562 7.34375 -2.570312 6.71875 -1.3125 C 6.09375 -0.0507812 5.492188 0.578125 4.921875 0.578125 C 4.460938 0.578125 4.164062 0.359375 4.03125 -0.078125 C 3.894531 -0.523438 3.828125 -0.976562 3.828125 -1.4375 Z M 3.828125 -23.734375 "></path></g></g></g><g fill="#100f0d" fill-opacity="1"><g transform="translate(172.783036, 204.658625)"><g><path d="M 2.859375 -20.765625 C 2.859375 -22.742188 3.148438 -24.6875 3.734375 -26.59375 C 4.328125 -28.5 5.109375 -30.25 6.078125 -31.84375 C 7.054688 -33.445312 8.144531 -34.789062 9.34375 -35.875 C 10.550781 -36.96875 11.742188 -37.6875 12.921875 -38.03125 L 36.03125 -38.03125 L 36.03125 -33.6875 C 34.539062 -34.445312 32.800781 -35.046875 30.8125 -35.484375 C 28.832031 -35.921875 26.609375 -36.140625 24.140625 -36.140625 L 12.40625 -36.140625 C 11.300781 -35.421875 10.335938 -34.273438 9.515625 -32.703125 C 8.703125 -31.140625 8.066406 -29.347656 7.609375 -27.328125 C 7.148438 -25.316406 6.921875 -23.28125 6.921875 -21.21875 C 6.921875 -18.207031 7.4375 -15.5 8.46875 -13.09375 C 9.5 -10.695312 10.878906 -8.664062 12.609375 -7 C 14.347656 -5.34375 16.242188 -4.078125 18.296875 -3.203125 C 20.359375 -2.328125 22.414062 -1.890625 24.46875 -1.890625 C 26.832031 -1.890625 28.785156 -2.191406 30.328125 -2.796875 C 31.878906 -3.410156 33.117188 -4.179688 34.046875 -5.109375 C 34.984375 -6.046875 35.703125 -6.972656 36.203125 -7.890625 L 37.34375 -7.265625 C 35.820312 -4.441406 33.609375 -2.425781 30.703125 -1.21875 C 27.804688 -0.0195312 24.609375 0.578125 21.109375 0.578125 C 19.234375 0.578125 17.238281 0.128906 15.125 -0.765625 C 13.007812 -1.660156 11.023438 -2.992188 9.171875 -4.765625 C 7.328125 -6.546875 5.8125 -8.769531 4.625 -11.4375 C 3.445312 -14.101562 2.859375 -17.210938 2.859375 -20.765625 Z M 2.859375 -20.765625 "></path></g></g></g><g fill="#100f0d" fill-opacity="1"><g transform="translate(212.129601, 204.658625)"><g><path d="M 22.1875 0.578125 C 19.519531 0.578125 17.015625 0.0703125 14.671875 -0.9375 C 12.328125 -1.945312 10.265625 -3.347656 8.484375 -5.140625 C 6.710938 -6.929688 5.332031 -9.019531 4.34375 -11.40625 C 3.351562 -13.789062 2.859375 -16.335938 2.859375 -19.046875 C 2.859375 -21.753906 3.351562 -24.285156 4.34375 -26.640625 C 5.332031 -29.003906 6.710938 -31.082031 8.484375 -32.875 C 10.265625 -34.675781 12.328125 -36.082031 14.671875 -37.09375 C 17.015625 -38.101562 19.519531 -38.609375 22.1875 -38.609375 C 24.851562 -38.609375 27.347656 -38.101562 29.671875 -37.09375 C 32.003906 -36.082031 34.054688 -34.675781 35.828125 -32.875 C 37.597656 -31.082031 38.976562 -29.003906 39.96875 -26.640625 C 40.96875 -24.285156 41.46875 -21.753906 41.46875 -19.046875 C 41.46875 -16.335938 40.96875 -13.789062 39.96875 -11.40625 C 38.976562 -9.019531 37.597656 -6.929688 35.828125 -5.140625 C 34.054688 -3.347656 32.003906 -1.945312 29.671875 -0.9375 C 27.347656 0.0703125 24.851562 0.578125 22.1875 0.578125 Z M 7.15625 -18.984375 C 7.15625 -16.472656 7.5625 -14.117188 8.375 -11.921875 C 9.195312 -9.734375 10.3125 -7.804688 11.71875 -6.140625 C 13.132812 -4.484375 14.742188 -3.1875 16.546875 -2.25 C 18.359375 -1.320312 20.238281 -0.859375 22.1875 -0.859375 C 24.132812 -0.859375 26.003906 -1.320312 27.796875 -2.25 C 29.585938 -3.1875 31.1875 -4.484375 32.59375 -6.140625 C 34.007812 -7.804688 35.125 -9.734375 35.9375 -11.921875 C 36.757812 -14.117188 37.171875 -16.472656 37.171875 -18.984375 C 37.171875 -21.503906 36.757812 -23.859375 35.9375 -26.046875 C 35.125 -28.242188 34.007812 -30.179688 32.59375 -31.859375 C 31.1875 -33.535156 29.585938 -34.835938 27.796875 -35.765625 C 26.003906 -36.703125 24.132812 -37.171875 22.1875 -37.171875 C 20.238281 -37.171875 18.359375 -36.703125 16.546875 -35.765625 C 14.742188 -34.835938 13.132812 -33.535156 11.71875 -31.859375 C 10.3125 -30.179688 9.195312 -28.242188 8.375 -26.046875 C 7.5625 -23.859375 7.15625 -21.503906 7.15625 -18.984375 Z M 7.15625 -18.984375 "></path></g></g></g><g fill="#100f0d" fill-opacity="1"><g transform="translate(256.451663, 204.658625)"><g><path d="M 3.828125 -23.734375 C 3.828125 -25.640625 3.835938 -27.546875 3.859375 -29.453125 C 3.878906 -31.359375 3.765625 -33.070312 3.515625 -34.59375 C 3.265625 -36.125 2.757812 -37.269531 2 -38.03125 L 7.828125 -38.03125 L 7.828125 -6.984375 C 8.441406 -8.085938 9.175781 -9.609375 10.03125 -11.546875 C 10.894531 -13.492188 11.859375 -15.65625 12.921875 -18.03125 C 13.992188 -20.414062 15.164062 -22.8125 16.4375 -25.21875 C 17.71875 -27.625 19.0625 -29.835938 20.46875 -31.859375 C 21.882812 -33.878906 23.375 -35.507812 24.9375 -36.75 C 26.5 -37.988281 28.097656 -38.609375 29.734375 -38.609375 C 31.179688 -38.609375 32.25 -38.1875 32.9375 -37.34375 C 33.625 -36.5 34.082031 -35.332031 34.3125 -33.84375 C 34.539062 -32.363281 34.65625 -30.613281 34.65625 -28.59375 L 34.65625 -14.296875 C 34.65625 -12.390625 34.644531 -10.484375 34.625 -8.578125 C 34.601562 -6.671875 34.71875 -4.953125 34.96875 -3.421875 C 35.21875 -1.898438 35.722656 -0.757812 36.484375 0 L 28.828125 0 C 29.585938 -0.757812 30.085938 -1.898438 30.328125 -3.421875 C 30.578125 -4.953125 30.691406 -6.671875 30.671875 -8.578125 C 30.660156 -10.484375 30.65625 -12.390625 30.65625 -14.296875 L 30.65625 -31.6875 C 30.65625 -31.6875 30.65625 -31.894531 30.65625 -32.3125 C 30.65625 -32.726562 30.578125 -33.203125 30.421875 -33.734375 C 30.265625 -34.273438 29.976562 -34.753906 29.5625 -35.171875 C 29.144531 -35.585938 28.535156 -35.796875 27.734375 -35.796875 C 26.472656 -35.796875 25.191406 -35.140625 23.890625 -33.828125 C 22.597656 -32.515625 21.296875 -30.78125 19.984375 -28.625 C 18.671875 -26.46875 17.394531 -24.09375 16.15625 -21.5 C 14.914062 -18.90625 13.722656 -16.3125 12.578125 -13.71875 C 11.429688 -11.132812 10.375 -8.765625 9.40625 -6.609375 C 8.4375 -4.453125 7.585938 -2.710938 6.859375 -1.390625 C 6.140625 -0.078125 5.550781 0.578125 5.09375 0.578125 C 4.59375 0.578125 4.253906 0.359375 4.078125 -0.078125 C 3.910156 -0.523438 3.828125 -0.976562 3.828125 -1.4375 Z M 3.828125 -23.734375 "></path></g></g></g><g clip-path="url(#6701cd8285)"><path fill="#100f0d" d="M 234.253906 164.195312 C 244.566406 164.195312 253.140625 171.640625 254.886719 181.453125 C 254.820312 170.113281 245.609375 160.941406 234.253906 160.941406 C 222.898438 160.941406 213.6875 170.113281 213.621094 181.453125 C 215.371094 171.640625 223.941406 164.195312 234.253906 164.195312 " fill-opacity="1" fill-rule="nonzero"></path></g><g clip-path="url(#705aedb98e)"><path fill="#100f0d" d="M 237.9375 157.332031 L 241.015625 149.835938 C 241.15625 149.488281 240.902344 149.109375 240.527344 149.109375 L 227.980469 149.109375 C 227.605469 149.109375 227.351562 149.488281 227.496094 149.835938 L 230.574219 157.332031 L 237.9375 157.332031 " fill-opacity="1" fill-rule="nonzero"></path></g><path fill="#100f0d" d="M 234.253906 160.222656 C 235.398438 160.222656 236.53125 160.3125 237.640625 160.488281 L 237.640625 158.050781 L 230.871094 158.050781 L 230.871094 160.488281 C 231.980469 160.3125 233.109375 160.222656 234.253906 160.222656 " fill-opacity="1" fill-rule="nonzero"></path></svg>